<svg width="74" height="67" viewBox="0 0 74 67" fill="none" xmlns="http://www.w3.org/2000/svg">
<path d="M12.2962 48.8838C12.7728 49.3513 13.138 49.9159 13.3658 50.5371C13.5936 51.1584 13.6783 51.8211 13.614 52.4781C13.2913 55.5185 12.6795 58.523 11.7866 61.4525C18.1918 60.0031 22.1039 58.3249 23.8808 57.4454C24.8887 56.9466 26.0493 56.8283 27.1408 57.1134C30.2697 57.9286 33.4945 58.3389 36.7326 58.3339C55.0806 58.3339 68.8737 45.7383 68.8737 31.4106C68.8737 17.0873 55.0806 4.48722 36.7326 4.48722C18.3847 4.48722 4.59158 17.0873 4.59158 31.4106C4.59158 37.9978 7.42458 44.1094 12.2962 48.8838ZM10.0326 66.4064C8.94471 66.6172 7.85329 66.8102 6.7588 66.9853C5.84049 67.1289 5.14257 66.1955 5.5053 65.3609C5.913 64.4213 6.28668 63.4679 6.62565 62.5025L6.63942 62.4577C7.77813 59.2269 8.70563 55.5114 9.04541 52.0518C3.41154 46.5325 0 39.3081 0 31.4106C0 14.063 16.447 0 36.7326 0C57.0182 0 73.4652 14.063 73.4652 31.4106C73.4652 48.7582 57.0182 62.8211 36.7326 62.8211C33.0945 62.8259 29.4714 62.3643 25.9562 61.448C23.5686 62.6282 18.4306 64.7775 10.0326 66.4064Z" fill="black"/>
<path d="M18.3663 20.1925C18.3663 19.5974 18.6082 19.0268 19.0388 18.606C19.4693 18.1852 20.0532 17.9489 20.6621 17.9489H52.8032C53.412 17.9489 53.996 18.1852 54.4265 18.606C54.8571 19.0268 55.0989 19.5974 55.0989 20.1925C55.0989 20.7875 54.8571 21.3582 54.4265 21.7789C53.996 22.1997 53.412 22.4361 52.8032 22.4361H20.6621C20.0532 22.4361 19.4693 22.1997 19.0388 21.7789C18.6082 21.3582 18.3663 20.7875 18.3663 20.1925ZM18.3663 31.4105C18.3663 30.8155 18.6082 30.2448 19.0388 29.824C19.4693 29.4033 20.0532 29.1669 20.6621 29.1669H52.8032C53.412 29.1669 53.996 29.4033 54.4265 29.824C54.8571 30.2448 55.0989 30.8155 55.0989 31.4105C55.0989 32.0056 54.8571 32.5762 54.4265 32.997C53.996 33.4178 53.412 33.6541 52.8032 33.6541H20.6621C20.0532 33.6541 19.4693 33.4178 19.0388 32.997C18.6082 32.5762 18.3663 32.0056 18.3663 31.4105ZM18.3663 42.6286C18.3663 42.0335 18.6082 41.4629 19.0388 41.0421C19.4693 40.6213 20.0532 40.385 20.6621 40.385H39.0284C39.6373 40.385 40.2213 40.6213 40.6518 41.0421C41.0823 41.4629 41.3242 42.0335 41.3242 42.6286C41.3242 43.2236 41.0823 43.7943 40.6518 44.2151C40.2213 44.6358 39.6373 44.8722 39.0284 44.8722H20.6621C20.0532 44.8722 19.4693 44.6358 19.0388 44.2151C18.6082 43.7943 18.3663 43.2236 18.3663 42.6286Z" fill="black"/>
</svg>
