<svg width="67" height="64" viewBox="0 0 67 64" fill="none" xmlns="http://www.w3.org/2000/svg">
<path d="M23.1195 64C25.8223 64 28.0134 61.8089 28.0134 59.1061C28.0134 56.4032 25.8223 54.2122 23.1195 54.2122C20.4167 54.2122 18.2256 56.4032 18.2256 59.1061C18.2256 61.8089 20.4167 64 23.1195 64Z" fill="black"/>
<path d="M52.8526 64C55.5555 64 57.7466 61.8089 57.7466 59.1061C57.7466 56.4032 55.5555 54.2122 52.8526 54.2122C50.1498 54.2122 47.9587 56.4032 47.9587 59.1061C47.9587 61.8089 50.1498 64 52.8526 64Z" fill="black"/>
<path d="M66.0771 6.0778C65.8747 5.8283 65.6195 5.62672 65.33 5.48757C65.0404 5.34842 64.7236 5.27515 64.4023 5.27303H19.1173L20.5311 9.62317H61.553L55.7455 35.724H23.1195L13.1794 4.25075C13.0719 3.91678 12.8852 3.61379 12.6352 3.3676C12.3852 3.12142 12.0794 2.93936 11.7439 2.83695L2.82608 0.0963627C2.55187 0.0121006 2.26375 -0.0173269 1.97817 0.0097603C1.69259 0.0368475 1.41514 0.119919 1.16166 0.254232C0.649738 0.525488 0.266541 0.988995 0.0963658 1.54278C-0.0738091 2.09657 -0.0170219 2.69528 0.254235 3.2072C0.525491 3.71913 0.988998 4.10232 1.54279 4.2725L9.35129 6.66507L19.3349 38.2036L15.7677 41.1182L15.485 41.4009C14.6026 42.4178 14.1025 43.7105 14.0707 45.0564C14.039 46.4023 14.4776 47.7171 15.311 48.7744C15.9038 49.4954 16.6571 50.0676 17.5107 50.4453C18.3643 50.8229 19.2944 50.9956 20.2266 50.9495H56.5285C57.1054 50.9495 57.6586 50.7203 58.0666 50.3124C58.4745 49.9045 58.7036 49.3513 58.7036 48.7744C58.7036 48.1976 58.4745 47.6443 58.0666 47.2364C57.6586 46.8285 57.1054 46.5994 56.5285 46.5994H19.8786C19.6282 46.5908 19.3841 46.5178 19.1701 46.3874C18.9561 46.257 18.7793 46.0736 18.6569 45.8549C18.5344 45.6363 18.4704 45.3897 18.4711 45.1391C18.4717 44.8885 18.537 44.6423 18.6606 44.4243L23.9025 40.0741H57.4856C57.9884 40.0864 58.4799 39.9241 58.8765 39.6148C59.273 39.3054 59.5501 38.8682 59.6606 38.3776L66.5556 7.92661C66.6218 7.60235 66.613 7.26727 66.5301 6.94688C66.4472 6.6265 66.2923 6.32926 66.0771 6.0778Z" fill="black"/>
</svg>
